# xmcd
#
# Track frame offsets:
#	182
#	12625
#	27675
#	42975
#	58800
#	71400
#	84100
#	107650
#	122775
#	137175
#	151275
#	166350
#	179850
#	192175
#
# Disc length: 2740 seconds
#
# Revision: 0
# Processed by: cddbd v1.5PL3 Copyright (c) Steve Scherf et al.
# Submitted via: dBpowerAMP V4.0
#
DISCID=c80ab20e
DTITLE=Aretha Franklin - Queen of Soul Music - Greatest Hits
DYEAR=1995
DGENRE=Soul
TTITLE0=Are You Shure
TTITLE1=Maybe I'm A Fool
TTITLE2=Lee Cross
TTITLE3=Drinking Again
TTITLE4=Rough Lover
TTITLE5=Walk On By
TTITLE6=Nobody Knows The Way I Feel This Morning
TTITLE7=Wont Be Long
TTITLE8=Today I Sing The Blues
TTITLE9=What A Different A Day Makes
TTITLE10=Sweet Lover
TTITLE11=Operation Heartbreak
TTITLE12=Runnin' Out Of Fools
TTITLE13=Trouble In Mind
EXTD=
EXTT0=
EXTT1=
EXTT2=
EXTT3=
EXTT4=
EXTT5=
EXTT6=
EXTT7=
EXTT8=
EXTT9=
EXTT10=
EXTT11=
EXTT12=
EXTT13=
PLAYORDER=
